<svg width="117" height="59" viewBox="0 0 117 59" fill="none" xmlns="http://www.w3.org/2000/svg">
<path d="M25.8152 46.7V28.65H13.1652V46.7H2.86523V7.15C2.86523 3.8 5.31523 2.05 8.01523 2.05C10.7152 2.05 13.1652 3.8 13.1652 7.15V19.95H25.8152V7.15C25.8152 3.8 28.2652 2.05 30.9652 2.05C33.6652 2.05 36.1152 3.8 36.1152 7.15V46.7H25.8152Z" fill="#18E7C1" fill-opacity="0.3"/>
<path d="M64.8152 46.7V28.65H52.1652V46.7H41.8652V7.15C41.8652 3.8 44.3152 2.05 47.0152 2.05C49.7152 2.05 52.1652 3.8 52.1652 7.15V19.95H64.8152V7.15C64.8152 3.8 67.2652 2.05 69.9652 2.05C72.6652 2.05 75.1152 3.8 75.1152 7.15V46.7H64.8152Z" fill="#18E7C1"/>
<path d="M103.815 46.7V28.65H91.1652V46.7H80.8652V7.15C80.8652 3.8 83.3152 2.05 86.0152 2.05C88.7152 2.05 91.1652 3.8 91.1652 7.15V19.95H103.815V7.15C103.815 3.8 106.265 2.05 108.965 2.05C111.665 2.05 114.115 3.8 114.115 7.15V46.7H103.815Z" fill="#18E7C1" fill-opacity="0.3"/>
</svg>
