<svg width="74" height="37" viewBox="0 0 74 37" fill="none" xmlns="http://www.w3.org/2000/svg">
<path d="M16.2636 29.701V18.3295H8.2941V29.701H1.8051V4.7845C1.8051 2.674 3.3486 1.5715 5.0496 1.5715C6.7506 1.5715 8.2941 2.674 8.2941 4.7845V12.8485H16.2636V4.7845C16.2636 2.674 17.8071 1.5715 19.5081 1.5715C21.2091 1.5715 22.7526 2.674 22.7526 4.7845V29.701H16.2636Z" fill="#18E7C1" fill-opacity="0.3"/>
<path d="M65.4036 29.701V18.3295H57.4341V29.701H50.9451V4.7845C50.9451 2.674 52.4886 1.5715 54.1896 1.5715C55.8906 1.5715 57.4341 2.674 57.4341 4.7845V12.8485H65.4036V4.7845C65.4036 2.674 66.9471 1.5715 68.6481 1.5715C70.3491 1.5715 71.8926 2.674 71.8926 4.7845V29.701H65.4036Z" fill="#18E7C1"/>
<path d="M40.8336 29.701V18.3295H32.8641V29.701H26.3751V4.7845C26.3751 2.674 27.9186 1.5715 29.6196 1.5715C31.3206 1.5715 32.8641 2.674 32.8641 4.7845V12.8485H40.8336V4.7845C40.8336 2.674 42.3771 1.5715 44.0781 1.5715C45.7791 1.5715 47.3226 2.674 47.3226 4.7845V29.701H40.8336Z" fill="#18E7C1" fill-opacity="0.3"/>
</svg>
