<svg width="45" height="45" viewBox="0 0 45 45" fill="none" xmlns="http://www.w3.org/2000/svg">
<circle cx="22.5" cy="22.5" r="22.5" fill="#18E7C1"/>
<path d="M14.5833 32C14.5833 32 13 32 13 30.4167C13 28.8333 14.5833 24.0833 22.5 24.0833C30.4167 24.0833 32 28.8333 32 30.4167C32 32 30.4167 32 30.4167 32H14.5833ZM22.5 22.5C23.7598 22.5 24.968 21.9996 25.8588 21.1088C26.7496 20.218 27.25 19.0098 27.25 17.75C27.25 16.4902 26.7496 15.282 25.8588 14.3912C24.968 13.5004 23.7598 13 22.5 13C21.2402 13 20.032 13.5004 19.1412 14.3912C18.2504 15.282 17.75 16.4902 17.75 17.75C17.75 19.0098 18.2504 20.218 19.1412 21.1088C20.032 21.9996 21.2402 22.5 22.5 22.5Z" fill="white"/>
</svg>
