<svg width="22" height="20" viewBox="0 0 22 20" fill="none" xmlns="http://www.w3.org/2000/svg">
<path d="M4.50598 13.992L7.02998 7.02899C7.48998 6.06199 8.19198 5.26299 8.99698 7.17999C9.73998 8.94999 10.847 12.19 11.502 13.995M5.65198 11.002H10.321" stroke="white" stroke-width="2" stroke-linecap="round" stroke-linejoin="round"/>
<path d="M2.464 2.318C1 3.636 1 5.758 1 10C1 14.242 1 16.364 2.464 17.682C3.93 19 6.286 19 11 19C15.714 19 18.071 19 19.535 17.682C20.999 16.364 21 14.242 21 10C21 5.758 21 3.636 19.535 2.318C18.072 1 15.714 1 11 1C6.286 1 3.929 1 2.464 2.318Z" stroke="white" stroke-width="2" stroke-linecap="round" stroke-linejoin="round"/>
<path d="M17.484 6.98706V9.98206M17.484 9.98206V13.9251M17.484 9.98206H15.466C15.226 9.98206 14.988 10.0261 14.764 10.1131C13.071 10.7701 13.071 13.2131 14.764 13.8701C14.989 13.9571 15.226 14.0011 15.466 14.0011H17.484" stroke="white" stroke-width="2" stroke-linecap="round" stroke-linejoin="round"/>
</svg>
