<svg width="17" height="20" viewBox="0 0 17 20" fill="none" xmlns="http://www.w3.org/2000/svg">
<path fill-rule="evenodd" clip-rule="evenodd" d="M14.9565 1.00268e-07C15.4597 -0.000159579 15.9443 0.190406 16.3132 0.533497C16.6822 0.876588 16.9082 1.34684 16.9459 1.85L16.9509 2V18C16.951 18.5046 16.761 18.9906 16.4189 19.3605C16.0768 19.7305 15.6078 19.9572 15.1061 19.995L14.9565 20H2.99042C2.48727 20.0002 2.00265 19.8096 1.63372 19.4665C1.26478 19.1234 1.03879 18.6532 1.00106 18.15L0.996071 18V17C0.741911 16.9997 0.497451 16.9021 0.312638 16.7272C0.127826 16.5522 0.0166101 16.313 0.00171518 16.0586C-0.0131797 15.8042 0.0693702 15.5536 0.232498 15.3582C0.395627 15.1627 0.62702 15.0371 0.879401 15.007L0.996071 15V13C0.741911 12.9997 0.497451 12.9021 0.312638 12.7272C0.127826 12.5522 0.0166101 12.313 0.00171518 12.0586C-0.0131797 11.8042 0.0693702 11.5536 0.232498 11.3582C0.395627 11.1627 0.62702 11.0371 0.879401 11.007L0.996071 11V9C0.741911 8.99972 0.497451 8.90212 0.312638 8.72715C0.127826 8.55218 0.0166101 8.31305 0.00171518 8.05861C-0.0131797 7.80416 0.0693702 7.55362 0.232498 7.35817C0.395627 7.16271 0.62702 7.0371 0.879401 7.007L0.996071 7V5C0.741911 4.99972 0.497451 4.90212 0.312638 4.72715C0.127826 4.55218 0.0166101 4.31305 0.00171518 4.05861C-0.0131797 3.80416 0.0693702 3.55362 0.232498 3.35817C0.395627 3.16271 0.62702 3.0371 0.879401 3.007L0.996071 3V2C0.995911 1.49542 1.18594 1.00943 1.52806 0.639452C1.87018 0.269471 2.33911 0.0428434 2.84084 0.00500021L2.99042 1.00268e-07H14.9565ZM14.9565 2H2.99042V18H14.9565V2ZM12.4636 4C12.8354 4.00002 13.1939 4.13892 13.4692 4.38962C13.7444 4.64032 13.9167 4.98484 13.9524 5.356L13.9593 5.5V7.5C13.9593 7.87288 13.8208 8.23239 13.5708 8.50842C13.3208 8.78445 12.9773 8.9572 12.6072 8.993L12.4636 9H5.48336C5.11153 8.99998 4.75304 8.86108 4.47779 8.61038C4.20254 8.35968 4.03027 8.01516 3.99458 7.644L3.9876 7.5V5.5C3.98761 5.12712 4.12612 4.76761 4.37611 4.49158C4.62611 4.21555 4.96965 4.0428 5.33977 4.007L5.48336 4H12.4636ZM11.965 6H5.98195V7H11.965V6Z" fill="white"/>
</svg>
