<svg width="19" height="19" viewBox="0 0 19 19" fill="none" xmlns="http://www.w3.org/2000/svg">
<path d="M2.08333 2.08333H8.33333C8.90625 2.08333 9.375 1.61458 9.375 1.04167C9.375 0.46875 8.90625 0 8.33333 0H2.08333C0.9375 0 0 0.9375 0 2.08333V16.6667C0 17.8125 0.9375 18.75 2.08333 18.75H8.33333C8.90625 18.75 9.375 18.2812 9.375 17.7083C9.375 17.1354 8.90625 16.6667 8.33333 16.6667H2.08333V2.08333Z" fill="#FF5151"/>
<path d="M18.3854 9.0104L15.4792 6.10415C15.4067 6.02972 15.3137 5.97861 15.212 5.95734C15.1104 5.93608 15.0047 5.94564 14.9085 5.98479C14.8123 6.02394 14.73 6.09091 14.672 6.17712C14.6141 6.26333 14.5832 6.36487 14.5833 6.46873V8.33331H7.29167C6.71875 8.33331 6.25 8.80206 6.25 9.37498C6.25 9.9479 6.71875 10.4166 7.29167 10.4166H14.5833V12.2812C14.5833 12.75 15.1458 12.9791 15.4688 12.6458L18.375 9.73956C18.5833 9.54165 18.5833 9.20831 18.3854 9.0104Z" fill="#FF5151"/>
</svg>
