<svg width="38" height="38" viewBox="0 0 38 38" fill="none" xmlns="http://www.w3.org/2000/svg">
<path d="M19.183 28.1053C19.5459 28.1053 19.85 27.9827 20.0952 27.7375C20.339 27.4923 20.4609 27.1883 20.4609 26.8253C20.4609 26.4638 20.3383 26.1604 20.0931 25.9152C19.8479 25.67 19.5445 25.5467 19.183 25.5453C18.8214 25.5439 18.518 25.6665 18.2728 25.9131C18.0276 26.1597 17.905 26.4631 17.905 26.8232C17.905 27.1834 18.0276 27.4875 18.2728 27.7355C18.518 27.9834 18.8214 28.1081 19.183 28.1053ZM18.144 21.2294H20.222V8.76161H18.144V21.2294ZM19.1892 37.5351C16.6042 37.5351 14.173 37.0447 11.8956 36.0639C9.6195 35.0817 7.6392 33.7491 5.95467 32.0659C4.27014 30.3828 2.93678 28.4046 1.9546 26.1313C0.972415 23.858 0.481323 21.4275 0.481323 18.8397C0.481323 16.252 0.972415 13.8207 1.9546 11.5461C2.9354 9.27001 4.26598 7.28972 5.94636 5.60518C7.62674 3.92065 9.60565 2.58729 11.8831 1.60511C14.1605 0.622928 16.5918 0.131836 19.1767 0.131836C21.7617 0.131836 24.1929 0.622928 26.4704 1.60511C28.7464 2.58591 30.7267 3.91719 32.4113 5.59895C34.0958 7.28071 35.4292 9.25962 36.4113 11.5357C37.3935 13.8117 37.8846 16.2423 37.8846 18.8272C37.8846 21.4122 37.3942 23.8434 36.4134 26.1209C35.4326 28.3983 34.1 30.3786 32.4154 32.0618C30.7309 33.7449 28.7527 35.0783 26.4808 36.0619C24.2089 37.0454 21.7783 37.5365 19.1892 37.5351ZM19.183 35.4572C23.8237 35.4572 27.7546 33.8467 30.9754 30.6259C34.1962 27.4051 35.8067 23.4743 35.8067 18.8335C35.8067 14.1927 34.1962 10.2619 30.9754 7.04106C27.7546 3.82022 23.8237 2.2098 19.183 2.2098C14.5422 2.2098 10.6114 3.82022 7.39054 7.04106C4.1697 10.2619 2.55928 14.1927 2.55928 18.8335C2.55928 23.4743 4.1697 27.4051 7.39054 30.6259C10.6114 33.8467 14.5422 35.4572 19.183 35.4572Z" fill="white" fill-opacity="0.5"/>
</svg>
