<svg width="15" height="7" viewBox="0 0 15 7" fill="none" xmlns="http://www.w3.org/2000/svg">
<path fill-rule="evenodd" clip-rule="evenodd" d="M12.612 1.8012C13.1674 1.2736 13.6471 0.6672 14.033 0H12.8488C11.5833 1.8142 9.48152 3 7.10342 3C4.72522 3 2.62342 1.8142 1.35802 0H0.17374C0.55971 0.6673 1.03941 1.2737 1.59482 1.8013L0 3.3962L0.70712 4.1033L2.36442 2.4459C3.07522 2.9693 3.87562 3.378 4.73862 3.6447L4.12152 5.866L5.08512 6.1336L5.71132 3.8793C6.16332 3.9586 6.62852 4 7.10342 4C7.57822 4 8.04332 3.9586 8.49542 3.8793L9.12152 6.1336L10.0851 5.866L9.46812 3.6447C10.3311 3.3781 11.1316 2.9693 11.8424 2.4458L13.5 4.1033L14.2071 3.3962L12.612 1.8012Z" fill="white" fill-opacity="0.5"/>
</svg>
