<svg width="14" height="8" viewBox="0 0 14 8" fill="none" xmlns="http://www.w3.org/2000/svg">
<path fill-rule="evenodd" clip-rule="evenodd" d="M6.63499 7C4.33509 7 2.31279 5.8058 1.15659 4C2.31279 2.1942 4.33509 1 6.63499 1C8.93479 1 10.9571 2.1942 12.1133 4C10.9571 5.8058 8.93479 7 6.63499 7ZM6.63499 0C9.51299 0 12.0124 1.6211 13.2699 4C12.0124 6.3789 9.51299 8 6.63499 8C3.75689 8 1.25749 6.3789 0 4C1.25749 1.6211 3.75689 0 6.63499 0ZM6.63529 6C7.73979 6 8.63529 5.1046 8.63529 4C8.63529 2.8954 7.73979 2 6.63529 2C5.53069 2 4.63529 2.8954 4.63529 4C4.63529 5.1046 5.53069 6 6.63529 6Z" fill="white" fill-opacity="0.5"/>
</svg>
