<svg width="16" height="16" viewBox="0 0 16 16" fill="none" xmlns="http://www.w3.org/2000/svg">
<path d="M8.99167 0.336C8.70558 0.117899 8.35761 0 8 0C7.64239 0 7.29442 0.117899 7.00833 0.336L1.22361 4.746C1.01834 4.90249 0.851737 5.1054 0.736988 5.33868C0.62224 5.57196 0.5625 5.82919 0.5625 6.09V14.07C0.5625 14.5156 0.736631 14.9429 1.04659 15.2579C1.35654 15.573 1.77693 15.75 2.21528 15.75H5.43819C5.67928 15.75 5.9105 15.6526 6.08097 15.4794C6.25145 15.3061 6.34722 15.0711 6.34722 14.826V10.71C6.34722 10.2644 6.52135 9.83712 6.83131 9.52206C7.14127 9.207 7.56166 9.03 8 9.03C8.43834 9.03 8.85873 9.207 9.16869 9.52206C9.47865 9.83712 9.65278 10.2644 9.65278 10.71V14.826C9.65278 15.0711 9.74855 15.3061 9.91903 15.4794C10.0895 15.6526 10.3207 15.75 10.5618 15.75H13.7847C14.2231 15.75 14.6435 15.573 14.9534 15.2579C15.2634 14.9429 15.4375 14.5156 15.4375 14.07V6.09C15.4375 5.82919 15.3778 5.57196 15.263 5.33868C15.1483 5.1054 14.9817 4.90249 14.7764 4.746L8.99167 0.336Z" fill="#DEDEDE"/>
</svg>
