<svg width="17" height="16" viewBox="0 0 17 16" fill="none" xmlns="http://www.w3.org/2000/svg">
<path d="M1.9375 15.75C1.9375 15.75 0.625 15.75 0.625 14.4375C0.625 13.125 1.9375 9.1875 8.5 9.1875C15.0625 9.1875 16.375 13.125 16.375 14.4375C16.375 15.75 15.0625 15.75 15.0625 15.75H1.9375ZM8.5 7.875C9.54429 7.875 10.5458 7.46016 11.2842 6.72173C12.0227 5.98331 12.4375 4.98179 12.4375 3.9375C12.4375 2.89321 12.0227 1.89169 11.2842 1.15327C10.5458 0.414843 9.54429 0 8.5 0C7.45571 0 6.45419 0.414843 5.71577 1.15327C4.97734 1.89169 4.5625 2.89321 4.5625 3.9375C4.5625 4.98179 4.97734 5.98331 5.71577 6.72173C6.45419 7.46016 7.45571 7.875 8.5 7.875Z" fill="#DEDEDE"/>
</svg>
